{
  "accessors": [
    {
      "bufferView": 2,
      "componentType": 5126,
      "count": 462,
      "max": [
        0.6159557700157166,
        0.7202138900756836,
        0.9255883097648621
      ],
      "min": [
        -0.7518556118011475,
        -0.6999607086181641,
        -0.027751751244068146
      ],
      "type": "VEC3"
    },
    {
      "bufferView": 2,
      "byteOffset": 5544,
      "componentType": 5126,
      "count": 462,
      "max": [
        0.9995316863059998,
        0.9991546273231506,
        0.9999211430549622
      ],
      "min": [
        -0.9999194741249084,
        -0.9942703247070313,
        -0.9998379349708557
      ],
      "type": "VEC3"
    },
    {
      "bufferView": 1,
      "componentType": 5126,
      "count": 462,
      "max": [
        0.9432064294815063,
        0.9918668270111084
      ],
      "min": [
        0.02271115779876709,
        0.30371028184890747
      ],
      "type": "VEC2"
    },
    {
      "bufferView": 0,
      "componentType": 5125,
      "count": 708,
      "type": "SCALAR"
    },
    {
      "bufferView": 2,
      "byteOffset": 11088,
      "componentType": 5126,
      "count": 462,
      "max": [
        0.32800984382629395,
        1.2166413068771362,
        0.9255883693695068
      ],
      "min": [
        -0.40037956833839417,
        -1.1824281215667725,
        -0.027751682326197624
      ],
      "type": "VEC3"
    },
    {
      "bufferView": 2,
      "byteOffset": 16632,
      "componentType": 5126,
      "count": 462,
      "max": [
        0.9995316863059998,
        0.9991546273231506,
        0.9999211430549622
      ],
      "min": [
        -0.9999194741249084,
        -0.9942703247070313,
        -0.9998379349708557
      ],
      "type": "VEC3"
    },
    {
      "bufferView": 1,
      "byteOffset": 3696,
      "componentType": 5126,
      "count": 462,
      "max": [
        0.9645837545394897,
        0.7639188766479492
      ],
      "min": [
        0.008233070373535156,
        0.19984480738639832
      ],
      "type": "VEC2"
    },
    {
      "bufferView": 0,
      "byteOffset": 2832,
      "componentType": 5125,
      "count": 708,
      "type": "SCALAR"
    },
    {
      "bufferView": 2,
      "byteOffset": 22176,
      "componentType": 5126,
      "count": 462,
      "max": [
        0.6159557700157166,
        0.7202135920524597,
        2.7819600105285645
      ],
      "min": [
        -0.7518556118011475,
        -0.6999610066413879,
        -0.08341114223003387
      ],
      "type": "VEC3"
    },
    {
      "bufferView": 2,
      "byteOffset": 27720,
      "componentType": 5126,
      "count": 462,
      "max": [
        0.9995316863059998,
        0.9991546273231506,
        0.9999211430549622
      ],
      "min": [
        -0.9999194741249084,
        -0.9942703247070313,
        -0.9998379349708557
      ],
      "type": "VEC3"
    },
    {
      "bufferView": 1,
      "byteOffset": 7392,
      "componentType": 5126,
      "count": 462,
      "max": [
        0.516543984413147,
        0.847813606262207
      ],
      "min": [
        0.008233070373535156,
        0.008226722478866577
      ],
      "type": "VEC2"
    },
    {
      "bufferView": 0,
      "byteOffset": 5664,
      "componentType": 5125,
      "count": 708,
      "type": "SCALAR"
    },
    {
      "bufferView": 2,
      "byteOffset": 33264,
      "componentType": 5126,
      "count": 462,
      "max": [
        0.6159557700157166,
        0.7202138900756836,
        0.9255883097648621
      ],
      "min": [
        -0.7518556118011475,
        -0.6999607086181641,
        -0.027751751244068146
      ],
      "type": "VEC3"
    },
    {
      "bufferView": 2,
      "byteOffset": 38808,
      "componentType": 5126,
      "count": 462,
      "max": [
        0.9995316863059998,
        0.9991546273231506,
        0.9999211430549622
      ],
      "min": [
        -0.9999194741249084,
        -0.9942703247070313,
        -0.9998379349708557
      ],
      "type": "VEC3"
    },
    {
      "bufferView": 1,
      "byteOffset": 11088,
      "componentType": 5126,
      "count": 462,
      "max": [
        0.9433456063270569,
        0.9598524570465088
      ],
      "min": [
        0.23505663871765137,
        0.022588789463043213
      ],
      "type": "VEC2"
    },
    {
      "bufferView": 0,
      "byteOffset": 8496,
      "componentType": 5125,
      "count": 708,
      "type": "SCALAR"
    },
    {
      "bufferView": 2,
      "byteOffset": 44352,
      "componentType": 5126,
      "count": 462,
      "max": [
        0.6159557700157166,
        0.7202138900756836,
        0.9255883097648621
      ],
      "min": [
        -0.7518556118011475,
        -0.6999607086181641,
        -0.027751751244068146
      ],
      "type": "VEC3"
    },
    {
      "bufferView": 2,
      "byteOffset": 49896,
      "componentType": 5126,
      "count": 462,
      "max": [
        0.9995316863059998,
        0.9991546273231506,
        0.9999211430549622
      ],
      "min": [
        -0.9999194741249084,
        -0.9942703247070313,
        -0.9998379349708557
      ],
      "type": "VEC3"
    },
    {
      "bufferView": 1,
      "byteOffset": 14784,
      "componentType": 5126,
      "count": 462,
      "max": [
        0.9903972148895264,
        0.9818698763847351
      ],
      "min": [
        0.3557074964046478,
        0.008229255676269531
      ],
      "type": "VEC2"
    },
    {
      "bufferView": 0,
      "byteOffset": 11328,
      "componentType": 5125,
      "count": 708,
      "type": "SCALAR"
    },
    {
      "bufferView": 2,
      "byteOffset": 55440,
      "componentType": 5126,
      "count": 462,
      "max": [
        0.6159557700157166,
        0.720213770866394,
        1.527219295501709
      ],
      "min": [
        -0.7518556118011475,
        -0.6999608278274536,
        -0.0457904227077961
      ],
      "type": "VEC3"
    },
    {
      "bufferView": 2,
      "byteOffset": 60984,
      "componentType": 5126,
      "count": 462,
      "max": [
        0.9995316863059998,
        0.9991546273231506,
        0.9999211430549622
      ],
      "min": [
        -0.9999194741249084,
        -0.9942703247070313,
        -0.9998379349708557
      ],
      "type": "VEC3"
    },
    {
      "bufferView": 1,
      "byteOffset": 18480,
      "componentType": 5126,
      "count": 462,
      "max": [
        0.8738127946853638,
        0.8415862321853638
      ],
      "min": [
        0.01788511872291565,
        0.008233070373535156
      ],
      "type": "VEC2"
    },
    {
      "bufferView": 0,
      "byteOffset": 14160,
      "componentType": 5125,
      "count": 708,
      "type": "SCALAR"
    }
  ],
  "asset": {
    "extras": {
      "author": "navebackwards (https://sketchfab.com/navebackwards)",
      "license": "CC-BY-4.0 (http://creativecommons.org/licenses/by/4.0/)",
      "source": "https://sketchfab.com/3d-models/low-poly-rock-cliffs-f43822b6eead40a2b977e8d0fa8ec757",
      "title": "Low Poly Rock Cliffs"
    },
    "generator": "Sketchfab-15.82.0",
    "version": "2.0"
  },
  "bufferViews": [
    {
      "buffer": 0,
      "byteLength": 16992,
      "name": "floatBufferViews",
      "target": 34963
    },
    {
      "buffer": 0,
      "byteLength": 22176,
      "byteOffset": 16992,
      "byteStride": 8,
      "name": "floatBufferViews",
      "target": 34962
    },
    {
      "buffer": 0,
      "byteLength": 66528,
      "byteOffset": 39168,
      "byteStride": 12,
      "name": "floatBufferViews",
      "target": 34962
    }
  ],
  "buffers": [
    {
      "byteLength": 105696,
      "uri": "scene.bin"
    }
  ],
  "images": [
    {
      "uri": "textures/standardSurface1_baseColor.png"
    }
  ],
  "materials": [
    {
      "doubleSided": true,
      "name": "standardSurface1",
      "pbrMetallicRoughness": {
        "baseColorTexture": {
          "index": 0
        },
        "metallicFactor": 0.0,
        "roughnessFactor": 0.6
      }
    }
  ],
  "meshes": [
    {
      "name": "Cliff01_standardSurface1_0",
      "primitives": [
        {
          "attributes": {
            "NORMAL": 1,
            "POSITION": 0,
            "TEXCOORD_0": 2
          },
          "indices": 3,
          "material": 0,
          "mode": 4
        }
      ]
    },
    {
      "name": "Cliff02_standardSurface1_0",
      "primitives": [
        {
          "attributes": {
            "NORMAL": 5,
            "POSITION": 4,
            "TEXCOORD_0": 6
          },
          "indices": 7,
          "material": 0,
          "mode": 4
        }
      ]
    },
    {
      "name": "Cliff03_standardSurface1_0",
      "primitives": [
        {
          "attributes": {
            "NORMAL": 9,
            "POSITION": 8,
            "TEXCOORD_0": 10
          },
          "indices": 11,
          "material": 0,
          "mode": 4
        }
      ]
    },
    {
      "name": "Cliff04_standardSurface1_0",
      "primitives": [
        {
          "attributes": {
            "NORMAL": 13,
            "POSITION": 12,
            "TEXCOORD_0": 14
          },
          "indices": 15,
          "material": 0,
          "mode": 4
        }
      ]
    },
    {
      "name": "Cliff05_standardSurface1_0",
      "primitives": [
        {
          "attributes": {
            "NORMAL": 17,
            "POSITION": 16,
            "TEXCOORD_0": 18
          },
          "indices": 19,
          "material": 0,
          "mode": 4
        }
      ]
    },
    {
      "name": "Cliff06_standardSurface1_0",
      "primitives": [
        {
          "attributes": {
            "NORMAL": 21,
            "POSITION": 20,
            "TEXCOORD_0": 22
          },
          "indices": 23,
          "material": 0,
          "mode": 4
        }
      ]
    }
  ],
  "nodes": [
    {
      "children": [
        1
      ],
      "matrix": [
        1.0,
        0.0,
        0.0,
        0.0,
        0.0,
        2.220446049250313e-16,
        -1.0,
        0.0,
        0.0,
        1.0,
        2.220446049250313e-16,
        0.0,
        0.0,
        0.0,
        0.0,
        1.0
      ],
      "name": "Sketchfab_model"
    },
    {
      "children": [
        2
      ],
      "matrix": [
        0.009999999776482582,
        0.0,
        0.0,
        0.0,
        0.0,
        0.0,
        0.009999999776482582,
        0.0,
        0.0,
        -0.009999999776482582,
        0.0,
        0.0,
        0.0,
        0.0,
        0.0,
        1.0
      ],
      "name": "57ecefcf21a54788a18f6f49f254e28a.fbx"
    },
    {
      "children": [
        3,
        5,
        7,
        9,
        11,
        13
      ],
      "name": "RootNode"
    },
    {
      "children": [
        4
      ],
      "matrix": [
        661.4664306640625,
        0.0,
        0.0,
        0.0,
        0.0,
        -0.00010776656027867881,
        -661.4664306640537,
        0.0,
        0.0,
        661.4664306640537,
        -0.00010776656027867881,
        0.0,
        0.0,
        0.0,
        -5004.66064453125,
        1.0
      ],
      "name": "Cliff01"
    },
    {
      "mesh": 0,
      "name": "Cliff01_standardSurface1_0"
    },
    {
      "children": [
        6
      ],
      "matrix": [
        661.4664306640625,
        0.0,
        0.0,
        0.0,
        0.0,
        -0.00010776656027867881,
        -661.4664306640537,
        0.0,
        0.0,
        661.4664306640537,
        -0.00010776656027867881,
        0.0,
        101.25850677490234,
        0.0,
        -3120.69921875,
        1.0
      ],
      "name": "Cliff02"
    },
    {
      "mesh": 1,
      "name": "Cliff02_standardSurface1_0"
    },
    {
      "children": [
        8
      ],
      "matrix": [
        661.4664306640625,
        0.0,
        0.0,
        0.0,
        0.0,
        -0.00010776656027867881,
        -661.4664306640537,
        0.0,
        0.0,
        661.4664306640537,
        -0.00010776656027867881,
        0.0,
        58.92677688598633,
        0.0,
        -1502.4625244140625,
        1.0
      ],
      "name": "Cliff03"
    },
    {
      "mesh": 2,
      "name": "Cliff03_standardSurface1_0"
    },
    {
      "children": [
        10
      ],
      "matrix": [
        661.4664306640625,
        0.0,
        0.0,
        0.0,
        0.0,
        -0.00010776656027867881,
        -661.4664306640537,
        0.0,
        0.0,
        661.4664306640537,
        -0.00010776656027867881,
        0.0,
        0.0,
        0.0,
        6.169083118438721,
        1.0
      ],
      "name": "Cliff04"
    },
    {
      "mesh": 3,
      "name": "Cliff04_standardSurface1_0"
    },
    {
      "children": [
        12
      ],
      "matrix": [
        242.2630615234383,
        -2.6896602891950117e-14,
        -419.61193135577804,
        0.0,
        -419.61193135577247,
        -7.893932396643645e-05,
        -242.26306152343506,
        0.0,
        -6.836345985805918e-05,
        484.5261230468685,
        -3.9469661983218226e-05,
        0.0,
        1.5163627862930298,
        -2.1264282125647924e-22,
        454.6442565917969,
        1.0
      ],
      "name": "Cliff05"
    },
    {
      "mesh": 4,
      "name": "Cliff05_standardSurface1_0"
    },
    {
      "children": [
        14
      ],
      "matrix": [
        0.0,
        3.671876306699309e-14,
        -661.4664306640625,
        0.0,
        -661.4664306640536,
        -0.00010776655954430355,
        -3.671876306699309e-14,
        0.0,
        -0.00010776655950758479,
        661.4664306640536,
        0.0,
        0.0,
        -375.1602478027344,
        6.544536247796293e-28,
        6.169083118438721,
        1.0
      ],
      "name": "Cliff06"
    },
    {
      "mesh": 5,
      "name": "Cliff06_standardSurface1_0"
    }
  ],
  "samplers": [
    {
      "magFilter": 9729,
      "minFilter": 9987,
      "wrapS": 10497,
      "wrapT": 10497
    }
  ],
  "scene": 0,
  "scenes": [
    {
      "name": "Sketchfab_Scene",
      "nodes": [
        0
      ]
    }
  ],
  "textures": [
    {
      "sampler": 0,
      "source": 0
    }
  ]
}
